<svg width="106" height="106" viewBox="0 0 106 106" fill="none" xmlns="http://www.w3.org/2000/svg">
<path d="M95.0936 65.2811L75.2186 85.1561C74.597 85.7777 73.754 86.1268 72.875 86.1268C71.996 86.1268 71.153 85.7777 70.5314 85.1561C69.9098 84.5345 69.5607 83.6915 69.5607 82.8125C69.5607 81.9335 69.9098 81.0905 70.5314 80.4689L84.7545 66.25H53C41.5828 66.2379 30.6367 61.6971 22.5635 53.624C14.4904 45.5508 9.94956 34.6047 9.9375 23.1875C9.9375 22.309 10.2865 21.4664 10.9077 20.8452C11.5289 20.224 12.3715 19.875 13.25 19.875C14.1285 19.875 14.9711 20.224 15.5923 20.8452C16.2135 21.4664 16.5625 22.309 16.5625 23.1875C16.5735 32.848 20.4159 42.1096 27.2469 48.9406C34.0779 55.7716 43.3395 59.614 53 59.625H84.7545L70.5314 45.4061C69.9098 44.7845 69.5607 43.9415 69.5607 43.0625C69.5607 42.1835 69.9098 41.3405 70.5314 40.7189C71.153 40.0973 71.996 39.7482 72.875 39.7482C73.754 39.7482 74.597 40.0973 75.2186 40.7189L95.0936 60.5939C95.4016 60.9015 95.6459 61.2669 95.8126 61.669C95.9793 62.0711 96.0651 62.5022 96.0651 62.9375C96.0651 63.3728 95.9793 63.8039 95.8126 64.206C95.6459 64.6081 95.4016 64.9735 95.0936 65.2811Z" fill="#F66A97"/>
</svg>
