<svg width="126" height="43" viewBox="0 0 126 43" fill="none" xmlns="http://www.w3.org/2000/svg">
<g clip-path="url(#clip0_2_41)">
<path d="M57.7299 23.839C58.9016 26.0475 54.3948 29.2183 52.407 30.3422C50.1972 29.9953 48.7124 26.4725 48.4981 24.6135C48.5918 22.4045 50.3063 21.1553 51.88 22.4146C53.8012 23.9519 56.5582 21.6306 57.7299 23.839Z" fill="#F66A97"/>
<path d="M55.813 22.1463C54.8568 21.9962 53.955 22.2759 53.324 22.8891C52.9112 22.1121 52.1385 21.5694 51.1822 21.4193C50.4209 21.3007 49.6436 21.4889 49.0209 21.9427C48.3981 22.3964 47.9808 23.0787 47.8605 23.8397C47.3516 27.0813 51.746 30.4596 51.9337 30.6001C51.9831 30.6375 52.041 30.6622 52.1023 30.6718C52.1635 30.6814 52.2262 30.6757 52.2847 30.6552C52.5064 30.5789 57.7246 28.7096 58.2334 25.4681C58.3521 24.7067 58.1639 23.9294 57.7101 23.3067C57.2563 22.6839 56.5741 22.2666 55.813 22.1463ZM52.227 29.8774C51.4587 29.252 48.2111 26.4423 48.6014 23.956C48.6908 23.3914 49.0004 22.8853 49.4624 22.5487C49.9244 22.212 50.5011 22.0723 51.0659 22.1603C51.9666 22.3016 52.6475 22.9001 52.8424 23.7202C52.8596 23.7926 52.898 23.8581 52.9526 23.9086C53.0072 23.9591 53.0755 23.9922 53.149 24.0037C53.2225 24.0153 53.2977 24.0047 53.3651 23.9734C53.4326 23.9421 53.4892 23.8914 53.5277 23.8278C53.9647 23.1055 54.796 22.7458 55.6967 22.8872C56.2613 22.9766 56.7675 23.2862 57.1041 23.7482C57.4407 24.2102 57.5804 24.7869 57.4925 25.3517C57.1028 27.8343 53.149 29.5168 52.227 29.8774Z" fill="#F66A97"/>
</g>
<path d="M5.436 31C4.884 31 4.224 30.808 3.456 30.424C2.712 30.016 2.052 29.536 1.476 28.984C0.924 28.432 0.648 27.976 0.648 27.616C0.624 27.232 0.732 26.428 0.972 25.204C1.236 23.956 1.404 23.152 1.476 22.792C1.572 22.312 1.752 21.436 2.016 20.164C2.28 18.868 2.496 17.668 2.664 16.564L2.952 14.872C3.408 12.184 3.828 10 4.212 8.32C4.62 6.64 5.028 5.8 5.436 5.8C5.844 5.8 6.396 5.968 7.092 6.304C7.812 6.64 8.484 7.072 9.108 7.6C9.732 8.104 10.152 8.584 10.368 9.04C10.752 9.904 11.256 11.752 11.88 14.584C12.312 16.552 12.636 17.908 12.852 18.652C13.884 17.092 15.204 14.704 16.812 11.488C17.844 9.448 18.624 7.996 19.152 7.132C19.704 6.244 20.196 5.8 20.628 5.8C21.084 5.8 21.696 6.004 22.464 6.412C23.256 6.82 23.94 7.3 24.516 7.852C25.116 8.404 25.416 8.884 25.416 9.292C25.416 9.628 25.272 10.576 24.984 12.136C24.696 13.672 24.516 14.632 24.444 15.016L23.508 20.092C23.268 21.508 23.016 23.368 22.752 25.672C22.512 27.64 22.296 29.02 22.104 29.812C21.936 30.604 21.66 31 21.276 31C20.724 31 20.064 30.808 19.296 30.424C18.552 30.016 17.892 29.536 17.316 28.984C16.764 28.432 16.488 27.976 16.488 27.616C16.464 27.304 16.548 26.644 16.74 25.636C16.956 24.604 17.196 23.44 17.46 22.144C17.676 21.112 17.796 20.524 17.82 20.38L19.116 16.384L18.612 16.204L18.252 16.924C17.316 18.844 16.56 20.344 15.984 21.424C15.432 22.48 14.976 23.236 14.616 23.692C14.376 23.98 13.944 24.22 13.32 24.412C12.696 24.58 12.084 24.664 11.484 24.664C10.86 24.664 10.44 24.556 10.224 24.34C10.008 24.148 9.816 23.752 9.648 23.152C9.504 22.528 9.3 21.568 9.036 20.272C8.988 20.008 8.856 19.372 8.64 18.364C8.424 17.332 8.184 16.396 7.92 15.556L7.668 20.092C7.428 21.508 7.176 23.368 6.912 25.672C6.672 27.64 6.456 29.02 6.264 29.812C6.096 30.604 5.82 31 5.436 31ZM43.0554 5.8C43.5114 5.8 44.1234 6.004 44.8914 6.412C45.6834 6.82 46.3674 7.3 46.9434 7.852C47.5434 8.404 47.8434 8.884 47.8434 9.292C47.8434 9.508 47.6154 10.468 47.1594 12.172C46.3194 15.196 45.6954 17.836 45.2874 20.092C45.0474 21.508 44.7954 23.368 44.5314 25.672C44.2914 27.64 44.0754 29.02 43.8834 29.812C43.7154 30.604 43.4394 31 43.0554 31C42.5034 31 41.8434 30.808 41.0754 30.424C40.3314 30.016 39.6714 29.536 39.0954 28.984C38.5434 28.432 38.2674 27.976 38.2674 27.616C38.2434 27.28 38.3154 26.644 38.4834 25.708C38.6754 24.748 38.8914 23.692 39.1314 22.54L39.4554 20.992C37.2474 21.328 35.0754 21.568 32.9394 21.712C32.6994 23.32 32.5314 24.664 32.4354 25.744C32.1954 27.688 31.9794 29.056 31.7874 29.848C31.6194 30.616 31.3434 31 30.9594 31C30.4074 31 29.7474 30.808 28.9794 30.424C28.2354 30.016 27.5754 29.536 26.9994 28.984C26.4474 28.432 26.1714 27.976 26.1714 27.616C26.1474 27.232 26.2554 26.428 26.4954 25.204C26.7594 23.956 26.9274 23.152 26.9994 22.792C27.0954 22.312 27.2754 21.436 27.5394 20.164C27.8034 18.868 28.0194 17.668 28.1874 16.564L28.4754 14.872C28.9314 12.184 29.3514 10 29.7354 8.32C30.1434 6.64 30.5514 5.8 30.9594 5.8C31.4154 5.8 32.0274 6.004 32.7954 6.412C33.5874 6.82 34.2714 7.3 34.8474 7.852C35.4474 8.404 35.7474 8.884 35.7474 9.292C35.7474 9.508 35.5194 10.468 35.0634 12.172C34.9674 12.556 34.7994 13.204 34.5594 14.116C34.3194 15.028 34.1034 15.88 33.9114 16.672C36.1434 16.504 38.3034 16.276 40.3914 15.988C40.4394 15.652 40.4874 15.388 40.5354 15.196C40.9674 12.532 41.3874 10.3 41.7954 8.5C42.2034 6.7 42.6234 5.8 43.0554 5.8Z" fill="#191919"/>
<path d="M64.644 5.44C67.548 5.68 70.236 6.4 72.708 7.6C75.18 8.8 77.136 10.312 78.576 12.136C80.016 13.936 80.736 15.832 80.736 17.824C80.736 19.576 79.968 21.508 78.432 23.62C76.896 25.732 75.024 27.52 72.816 28.984C70.632 30.448 68.64 31.18 66.84 31.18C66.24 31.18 65.472 30.88 64.536 30.28C63.624 29.68 62.82 28.996 62.124 28.228C61.428 27.436 61.08 26.812 61.08 26.356C61.08 25.948 61.32 24.808 61.8 22.936C62.28 20.992 62.676 19.24 62.988 17.68C63.108 17.08 63.372 16.024 63.78 14.512C63.828 14.296 63.948 13.864 64.14 13.216C64.332 12.544 64.476 11.932 64.572 11.38L63.096 11.308C62.712 10.54 62.52 9.772 62.52 9.004C62.52 8.284 62.7 7.624 63.06 7.024C63.42 6.4 63.948 5.872 64.644 5.44ZM66.84 26.464C69.24 25.216 71.232 23.692 72.816 21.892C74.424 20.092 75.228 18.4 75.228 16.816C75.228 15.88 74.664 14.98 73.536 14.116C72.432 13.252 71.16 12.676 69.72 12.388C69.432 13.852 69 15.952 68.424 18.688C67.704 22.096 67.176 24.688 66.84 26.464ZM98.1555 5.8C98.6115 6.064 98.9475 6.436 99.1635 6.916C99.4035 7.372 99.5235 7.876 99.5235 8.428C99.5235 8.908 99.4275 9.388 99.2355 9.868C99.0435 10.348 98.7915 10.744 98.4795 11.056C95.3835 11.104 92.8035 11.224 90.7395 11.416C90.3315 12.88 89.9475 14.512 89.5875 16.312C91.9875 16.12 94.0155 15.832 95.6715 15.448C96.1515 15.736 96.5115 16.12 96.7515 16.6C97.0155 17.056 97.1475 17.56 97.1475 18.112C97.1475 18.616 97.0395 19.096 96.8235 19.552C96.6315 19.984 96.3555 20.332 95.9955 20.596C95.5395 20.644 95.0955 20.68 94.6635 20.704C94.2315 20.728 93.8115 20.752 93.4035 20.776L88.7595 21.1L88.1115 24.34L87.7515 26.068C89.2155 25.924 90.5355 25.732 91.7115 25.492C92.9115 25.228 94.1715 24.868 95.4915 24.412C96.1635 24.724 96.6795 25.168 97.0395 25.744C97.4235 26.296 97.6155 26.908 97.6155 27.58C97.6155 28.54 97.2435 29.392 96.4995 30.136C95.0115 30.424 93.3435 30.64 91.4955 30.784C89.6475 30.928 87.9315 31 86.3475 31C85.9155 31 85.3515 30.784 84.6555 30.352C83.9595 29.92 83.3355 29.416 82.7835 28.84C82.2555 28.264 81.9915 27.772 81.9915 27.364C81.9915 27.004 82.2675 25.612 82.8195 23.188C83.2275 21.412 83.6235 19.564 84.0075 17.644C84.2715 16.324 84.4035 15.664 84.4035 15.664C84.7875 13.792 85.0395 12.436 85.1595 11.596L83.6475 11.704C83.1915 11.464 82.8195 11.116 82.5315 10.66C82.2675 10.18 82.1355 9.664 82.1355 9.112C82.1355 8.152 82.5075 7.3 83.2515 6.556C86.5395 6.508 89.3955 6.436 91.8195 6.34C94.2675 6.244 96.3795 6.064 98.1555 5.8ZM108.783 31C108.327 31 107.667 30.808 106.803 30.424C105.939 30.016 105.135 29.548 104.391 29.02C103.671 28.468 103.263 28 103.167 27.616C103.047 27.088 102.831 24.88 102.519 20.992C102.423 19.432 102.339 18.292 102.267 17.572C102.219 16.948 102.171 16.48 102.123 16.168C101.811 12.952 101.655 10.624 101.655 9.184C101.655 7.576 101.835 6.724 102.195 6.628C102.291 6.604 102.447 6.592 102.663 6.592C103.191 6.592 103.839 6.724 104.607 6.988C105.399 7.228 106.095 7.54 106.695 7.924C107.295 8.308 107.643 8.68 107.739 9.04C107.787 9.184 107.811 9.724 107.811 10.66C107.811 11.98 107.775 13.6 107.703 15.52C107.607 18.64 107.559 21.052 107.559 22.756V24.052C109.599 19.588 111.879 13.6 114.399 6.088C115.119 5.848 115.851 5.728 116.595 5.728C117.579 5.728 118.407 5.992 119.079 6.52C119.775 7.048 120.231 7.852 120.447 8.932C113.703 23.644 109.815 31 108.783 31Z" fill="#191919"/>
<defs>
<clipPath id="clip0_2_41">
<rect width="12" height="12" fill="white" transform="translate(47.861 19) rotate(8.92142)"/>
</clipPath>
</defs>
</svg>
